<?xml version="1.0" standalone="no"?>
<!DOCTYPE svg PUBLIC "-//W3C//DTD SVG 1.1//EN" "http://www.w3.org/Graphics/SVG/1.1/DTD/svg11.dtd">
<svg xmlns="http://www.w3.org/2000/svg" viewBox="0 0 1200 1200" width="1200" height="1200"><defs><clipPath id="circular-frame-clip"><circle cx="600" cy="600" r="600"/></clipPath></defs><g clip-path=""><g transform="translate(600 600) scale(0.7309433309426329) translate(-600 -600) translate(135.09528334528684 315.0952833452869)"><g><g><g transform="translate(0 459)"><g stroke="none" fill="none" stroke-width="1" fill-rule="evenodd"><path d="M47.9995502,350.888305 L764.471804,407.766953 L765.22201,412.635528 C777.227839,490.825714 783.292007,543.872103 783.414516,571.774697 L783.41641,572.629647 C783.41641,600.296123 791.909614,644.297584 808.896023,704.634031 L809.94662,708.348509 L46.9995502,709.677696 L37.9995502,528.065892 L47.9995502,350.888305 Z M472.169286,-38.8170214 C501.301539,-37.379399 530.661457,-24.8902772 532.929221,-16.908258 C537.979813,0.868687641 546.101986,76.9655462 572.811422,88.6567654 C599.520858,100.347985 656.54242,89.689443 672.845643,117.609121 C689.148866,145.528799 742.689229,259.341414 742.689229,285.860811 C742.689229,303.54041 568.207206,309.677287 219.24316,304.271444 C223.698007,161.869755 242.270628,87.013844 274.961025,79.70371 L277.879277,79.0587326 C325.154913,68.7317142 353.409346,68.3987667 369.536561,51.75139 C385.992902,34.764271 388.979166,5.60573336 395.806186,-16.908258 C399.567808,-29.3132511 436.420404,-40.5811621 472.169286,-38.8170214 Z" fill="#FFFFFF"/><path d="M536.05662,5.68850908 C536.16662,5.60573336 536.27762,5.57850908 536.39662,5.63850908 C538.66662,6.72850908 539.13662,8.90850908 539.91662,11.1785091 C541.05662,14.4985091 542.37662,17.7385091 543.59662,21.0285091 C546.02762,27.6285091 548.34662,34.2185091 551.05662,40.7085091 C553.83662,47.3885091 556.71662,53.9485091 560.01662,60.3985091 C561.60662,63.5185091 563.31662,66.5785091 565.05662,69.6185091 C566.25662,71.7285091 567.37662,74.6285091 568.95662,76.6085091 C569.07662,75.9785091 569.24662,75.3785091 569.44662,74.8185091 C569.23762,74.9185091 569.03662,75.0285091 568.84662,75.1485091 C568.44662,75.3985091 567.96662,74.8985091 568.20662,74.5085091 C569.06662,73.0885091 570.18662,72.1285091 571.46662,71.4785091 C575.00662,67.5485091 653.03562,86.3035091 674.36662,107.368509 C712.99962,145.519509 739.07662,192.688509 756.22662,242.868509 C765.69662,270.558509 774.41662,298.518509 783.42662,326.358509 C792.94662,355.798509 802.88662,385.108509 812.42662,414.528509 C814.51662,420.998509 809.95662,426.878509 804.19662,429.008509 C793.46662,432.968509 782.65662,436.698509 771.75662,440.148509 C777.04662,460.458509 780.74662,481.198509 783.40662,501.998509 C788.89662,544.888509 789.58662,588.648509 798.23762,631.088509 C800.223834,640.829223 802.73688,650.431978 805.391642,660.008866 L806.00662,662.218509 C807.58662,667.838509 809.02762,673.508509 810.96662,679.008509 C812.63662,683.738509 814.79662,688.508509 815.96662,693.388509 C817.33662,699.128509 815.31662,705.398509 809.94662,708.348509 C805.63662,710.718509 799.46662,709.738509 796.86662,705.288509 C796.33662,704.378509 796.01662,703.388509 795.88662,702.388509 C795.49662,701.558509 795.13662,700.708509 794.81662,699.838509 C794.69162,699.503509 794.58162,699.156009 794.47662,698.807259 L794.16662,697.768509 C793.40662,695.288509 792.70662,692.788509 792.00662,690.288509 C790.86662,686.277081 789.719273,682.280346 788.451226,678.304602 L787.80662,676.318509 C784.66662,666.758509 781.85662,657.118509 779.40662,647.358509 C770.638789,612.361899 768.778707,576.128311 766.371649,540.263261 L766.24662,538.408509 C764.06662,506.268509 762.76662,474.198509 765.43662,442.128509 L765.07162,442.247259 L765.07162,442.247259 L764.70662,442.358509 C761.23762,443.418509 757.75662,444.458509 754.26662,445.468509 C754.15662,445.508509 754.05662,445.548509 753.94662,445.578509 C751.713286,446.270176 749.417453,446.92712 747.082268,447.537768 L745.67662,447.898509 L744.68662,448.168509 L743.644451,448.465023 C740.337413,449.424133 736.965667,450.527081 733.53662,450.418509 C727.85662,451.328509 722.07662,451.878509 716.39662,451.898509 C718.14662,480.508509 720.16662,509.098509 722.57662,537.658509 C724.99662,566.368509 728.20662,594.968509 731.53662,623.568509 C733.17662,637.698509 734.93662,651.798509 736.87662,665.878509 C737.85662,673.018509 738.87662,680.118509 740.17662,687.198509 C741.51662,694.438509 743.88662,702.178509 742.45662,709.498509 C742.42662,709.488509 742.39662,709.478509 742.36662,709.478509 C741.88662,711.598509 740.60662,713.498509 738.37662,714.808509 C734.28662,717.198509 728.56662,715.798509 726.21662,711.618509 C726.01662,711.268509 725.82662,710.908509 725.64662,710.538509 C723.23762,711.568509 720.59662,711.968509 717.35662,711.998509 L673.41662,712.438509 L673.41662,712.438509 C653.44662,712.638509 633.47662,712.848509 613.49662,713.138509 C550.767731,714.062954 488.038842,715.12962 425.309953,715.889017 L401.78662,716.158509 C366.50662,716.528509 331.20662,717.258509 295.92662,717.248509 C278.27762,717.248509 260.64662,717.188509 242.99662,716.758509 C234.44662,716.548509 225.91662,716.218509 217.37662,715.868509 L215.86889,715.799589 C209.051138,715.463111 201.812826,714.831613 195.14662,716.358509 C193.30662,719.938509 188.60662,720.678509 186.14662,717.018509 C180.524983,708.643964 178.991,696.95961 177.952441,686.724443 L177.58662,683.038509 C176.43662,671.568509 175.42662,660.098509 174.67662,648.608509 C172.01662,607.898509 171.04662,567.148509 172.26662,526.358509 C172.88662,505.568509 174.79662,484.898509 177.05662,464.228509 C177.76662,457.778509 178.50662,451.338509 179.30662,444.908509 L179.32037,442.622259 C179.32162,441.891009 179.31662,441.193509 179.29662,440.538509 L179.097245,434.33429 C178.93162,429.162806 178.777713,423.988392 178.713651,418.81349 L178.68662,415.708509 L178.65662,409.928509 C173.71662,409.458509 168.44662,407.818509 164.18662,407.028509 C157.27762,405.738509 150.38662,404.348509 143.51662,402.878509 C129.75662,399.918509 116.14662,396.418509 102.62662,392.548509 L99.7512151,391.722609 C87.2759053,388.127948 74.6287624,384.294938 62.8266196,378.918509 C58.2066196,376.808509 53.5966196,374.428509 49.5466196,371.308509 C49.3066196,374.588509 48.9366196,377.858509 48.7166196,381.108509 C48.2776196,387.538509 47.7566196,393.948509 47.3266196,400.378509 L46.9154159,406.496426 C46.2399529,416.690176 45.6316196,426.873509 45.3566196,437.098509 C44.1366196,481.698509 43.9266196,526.488509 46.2866196,571.058509 C47.4566196,593.368509 49.1266196,615.678509 51.5366196,637.898509 C52.7166196,648.828509 53.9666196,659.788509 55.5066196,670.678509 C57.0966196,681.868509 59.9666196,692.988509 60.8466196,704.258509 C61.6866196,715.128509 45.0666196,716.708509 42.3366196,706.768509 C39.067691,694.849938 38.2349614,681.992221 36.5119034,669.737576 L36.3166196,668.378509 C34.4066196,655.358509 32.8766196,642.288509 31.5566196,629.198509 C27,584.048509 25.8166196,538.668509 28.2066196,493.348509 C29.3429159,471.643324 32.0370723,450.021595 35.2979106,428.545831 L35.6766196,426.068509 C37.161064,416.450731 38.5506937,406.832954 40.2317911,397.257316 L40.8766196,393.668509 C42.3866196,385.438509 43.5466196,376.488509 45.9966196,368.258509 L45.2683538,367.586948 C43.9067971,366.318568 42.431235,364.850817 41.3566196,363.268509 C37.6566196,362.768509 34.5066196,360.108509 34.8966196,355.278509 C36.1666196,339.408509 41.9666196,323.268509 47.1366196,308.288509 C52.3266196,293.228509 58.3466196,278.448509 65.1666196,264.048509 C89.1566196,213.438509 123.70662,167.488509 165.95662,130.678509 C188.36662,111.148509 212.92662,93.8285091 240.06662,81.4985091 C253.44662,75.4085091 267.28662,70.6985091 281.78662,68.1585091 C288.96662,66.8985091 296.21662,65.9185091 303.51662,65.7085091 C309.438941,62.2120805 316.470558,63.6833656 322.205126,67.5170707 L322.51662,67.7285091 L322.52762,67.7285091 L323.99662,68.0185091 L323.99662,68.0185091 C324.35662,68.0885091 324.34662,68.6585091 323.99662,68.7385091 C323.97662,68.7385091 323.94662,68.7485091 323.92662,68.7585091 C324.86662,69.4985091 325.75662,70.2885091 326.58662,71.1385091 C329.32662,73.9385091 329.31662,77.3185091 327.90662,80.0485091 C336.29662,87.8285091 341.59662,97.8185091 347.14662,107.888509 C353.09662,118.668509 360.88662,127.988509 370.36662,135.848509 C405.11662,164.668509 456.22662,177.418509 499.76662,163.808509 C531.78662,153.808509 559.13662,126.738509 566.69662,94.1485091 C564.90662,94.7885091 562.96662,94.8885091 561.12662,94.2285091 C552.485985,91.1481916 549.191502,81.7047903 545.886566,73.8093073 L545.72662,73.4285091 C542.49662,65.7785091 539.78662,58.0085091 537.64662,49.9885091 C535.48762,41.8885091 534.21662,33.3385091 533.68662,24.9785091 C533.482074,21.6730545 533.572074,18.3676 533.743013,15.0621454 L533.89482,12.3289891 C534.011624,9.85242019 533.975286,7.32184241 536.05662,5.68850908 Z M395.46712,-16.6014909 C395.58712,-16.9014909 396.05712,-17.0614909 396.23712,-16.7014909 C403.88612,-0.921490921 398.86712,20.6985091 391.63612,35.7485091 C384.06712,51.4885091 372.66712,63.4285091 359.15712,73.7585091 C357.29712,75.1785091 355.38612,76.5785091 353.44712,77.9485091 C342.17612,85.9085091 332.13612,64.4485091 345.14712,60.3485091 C358.70712,53.4585091 369.72712,41.1785091 377.38612,28.2785091 C381.52712,21.3085091 385.19712,14.0485091 388.00712,6.42850908 C390.80712,-1.17149092 392.48712,-9.08149092 395.46712,-16.6014909 Z" fill="#000"/></g></g><g transform="translate(-176 479)"><g/></g><g transform="translate(-295 450)"><g/></g></g><g transform="translate(225 0)"><g stroke="none" fill="none" stroke-width="1" fill-rule="evenodd"><path d="M388.416675,151.808832 C381.338675,126.312832 382.3511,123.5552 371.8021,99.2022 C336.8221,28.4522 103.0631,52.1412 79.2061,122.7652 C66.2635108,161.079214 69.3041,215.0382 65.9351,248.2612 C64.904144,265.875904 63.8914203,283.491714 62.8423101,301.104932 C62.4799964,307.187714 62.113343,313.270188 61.7401,319.3522 C61.0131,331.1922 60.3061,343.0322 59.6461,354.8762 C55.2511,391.3622 73.5871,395.0732 105.0381,393.9932 C113.3531,414.0542 126.8201,430.8002 143.4551,444.4252 C139.4401,455.3472 154.0001,461.0012 161.8541,465.3682 C204.5871,489.2282 257.0781,503.7832 304.4111,490.3662 C318.318671,486.423963 375.752622,472.770576 393.4121,430.504717 C402.084181,409.749124 419.713053,302.26361 396.465053,205.57561 L388.416675,151.808832 Z" fill="#FFFFFF"/><path d="M239.0013,-14.494 C245.6103,-15.663 253.0013,-15.213 256.7903,-8.723 C257.6103,-7.324 258.1303,-5.913 258.3803,-4.523 C276.4403,-8.583 295.1903,-9.023 313.6403,-6.363 C319.1403,-5.574 321.0703,1.756 318.6503,5.947 C318.4003,6.377 318.1503,6.796 317.8803,7.207 C323.6603,7.676 329.4303,8.676 335.1503,10.217 C339.2203,11.317 343.0203,16.587 341.2113,20.907 C341.0503,21.287 340.8803,21.667 340.7113,22.046 C349.7003,23.557 358.2903,27.087 365.8003,32.787 C366.7003,33.457 367.5303,34.327 368.2203,35.317 C385.0103,33.426 402.3003,36.897 417.2903,44.997 C421.4903,47.266 423.5203,53.807 420.6703,57.887 C419.7803,59.157 418.8503,60.367 417.8503,61.537 C424.3703,63.947 430.1403,67.846 434.0303,74.197 C438.2603,81.087 439.5603,89.957 437.2903,97.537 C442.0303,102.367 444.5103,109.766 442.8203,117.186 C441.2803,123.957 437.1303,128.256 431.8103,130.837 C432.8903,134.137 432.0203,137.887 429.5703,140.436 C425.8103,144.346 421.3103,147.346 416.4103,149.317 C416.4003,150.587 416.0803,151.897 415.4403,153.117 C411.0203,161.596 401.4903,167.227 391.8003,168.077 C395.0603,181.766 397.7403,195.627 400.3403,209.407 C404.9613,233.917 408.5403,258.667 410.7203,283.516 L410.984914,286.589063 C414.53615,328.637328 415.361729,372.68769 406.8103,414.167 C401.3603,440.577 384.8403,462.837 362.8003,477.917 C340.3903,493.256 313.0103,500.887 286.0703,502.096 C272.3303,502.707 258.4613,501.546 245.0013,498.727 C238.6103,497.387 232.4403,495.487 226.3703,493.067 C219.8403,490.457 214.4613,486.607 208.9403,482.277 C206.0703,480.027 207.7113,474.717 211.1103,474.046 C213.5403,473.557 215.9403,473.027 218.3603,472.587 C220.5803,472.176 223.0013,474.397 222.5403,476.447 L227.22254,477.652568 C228.78318,478.055096 230.34286,478.461112 231.89902,478.879064 L234.2303,479.516 C240.8603,481.367 247.6403,482.926 254.4403,484.037 C268.2803,486.287 282.6803,486.337 296.5903,484.587 C319.9803,481.657 343.8703,473.317 362.0603,457.947 C370.9803,450.407 378.4103,441.477 383.8003,431.107 C390.6503,417.936 392.7203,403.266 394.4403,388.697 C399.4103,346.567 397.8803,304.377 394.0203,262.237 C392.1003,241.277 389.4803,220.357 386.7003,199.487 C385.2703,188.787 383.7303,178.067 382.4613,167.327 C379.6303,166.567 376.9303,165.307 374.5103,163.477 C372.8703,162.237 371.9103,160.796 371.4903,159.327 C369.04655,158.866042 366.704743,157.525253 365.016723,155.257988 L364.8003,154.957 C360.3703,148.546 352.7113,144.877 345.6203,142.207 C341.3203,140.587 336.9403,139.176 332.5803,137.737 C328.0403,136.227 323.2403,133.997 318.4703,133.417 C313.0603,132.777 307.6103,134.407 302.1503,133.827 C297.1903,133.287 292.8203,131.506 289.2513,127.947 C288.0013,126.707 286.9203,125.277 286.0603,123.737 C269.4103,127.296 251.9203,122.807 234.6203,123.887 C223.2403,124.607 213.2003,131.647 201.7003,131.457 C198.5603,131.407 195.5203,130.307 193.3103,128.377 C182.4613,130.447 171.4303,134.426 161.2303,137.846 C151.1503,141.227 141.4503,145.777 131.4903,149.467 C131.4803,149.477 131.4803,149.477 131.4803,149.487 C130.1803,153.697 126.3003,155.516 122.1703,154.777 C108.6603,152.367 97.2803,143.846 84.1303,140.727 C80.5103,153.917 76.6203,166.936 73.9613,180.387 C71.2703,193.957 69.3803,207.707 68.1303,221.487 C66.8703,235.317 66.2703,249.287 66.2403,263.167 C66.2303,270.247 66.4103,277.346 66.6503,284.426 C66.8447444,290.357528 67.9749528,297.857169 65.832088,303.56153 L65.6403,304.046 L65.6303,304.046 C65.3703,304.877 64.2003,305.377 63.5403,304.607 C59.5103,299.926 58.5503,292.477 57.4303,286.596 C56.0703,279.457 55.2003,272.247 54.5013,265.016 C53.1003,250.506 52.7903,236.057 53.5303,221.487 C54.9803,192.807 59.5803,162.516 69.4003,135.407 C66.3803,135.686 65.0303,131.237 64.8303,128.727 C64.4476913,123.682652 65.2378614,118.329798 66.0942106,113.270722 L66.989513,108.033435 C67.8383556,103.089917 68.7369667,98.2753333 70.4203,93.467 C74.4613,81.926 80.2703,71.087 87.5103,61.237 C102.2803,41.147 122.7513,25.936 146.0603,17.167 C147.5203,16.617 148.9003,16.627 150.1203,17.046 C171.3303,5.617 194.1303,-3.183 217.2903,-9.443 C224.4503,-11.373 231.7003,-13.193 239.0013,-14.494 Z M62.8606,307.9365 C72.4906,301.8975 92.3606,300.3175 97.7306,313.1865 C97.9506,313.7065 97.3306,314.1665 96.8706,314.0465 L95.5565528,313.714567 C90.5088271,312.463795 86.1469158,311.745132 80.9706,313.8175 C76.4206,315.6375 72.0006,318.4865 68.9906,322.4065 C61.8753619,331.676976 61.1038376,344.269428 61.7673931,355.514457 L61.8006,356.0575 C62.4206,365.9265 64.9506,377.9465 74.6006,382.8265 C79.4906,385.2965 84.7806,385.1165 90.0906,385.0765 C96.1406,385.0365 102.3206,385.6965 108.1006,387.5575 C111.3306,388.5965 112.8506,392.8765 110.1706,395.3875 C109.2806,396.2175 108.3506,396.9965 107.3706,397.6965 C110.3006,400.8175 113.1806,403.9775 115.9706,407.3075 C120.7006,412.9565 125.7306,418.4165 130.9806,423.5865 C136.0606,428.5765 141.4406,433.4065 147.2406,437.5465 C153.3406,441.8875 160.6406,444.9365 165.9206,450.2565 C169.3606,453.7175 168.7706,458.5465 165.9206,462.0465 C158.8454,470.74506 146.802776,461.600522 140.037971,456.457019 L139.2206,455.8365 C132.1906,450.5165 125.5106,444.7765 119.8206,438.0165 C114.0206,431.1165 109.0006,423.7765 105.2906,415.5465 C103.1106,410.7065 101.7206,406.1375 100.9706,401.3575 C88.8106,406.6375 73.4806,404.9565 62.5806,397.5265 C48.1106,387.6665 44.0506,369.5675 43.9999519,353.0465 L44.0014227,352.06706 C44.108496,336.0086 48.3272,317.0505 62.8606,307.9365 Z M90.2943881,331.211644 L90.7403,331.2169 C96.0956333,331.3329 100.871611,333.261722 105.420519,335.919411 L105.8903,336.1969 C110.3103,338.8269 116.6503,340.9359 118.9903,345.8569 C120.3903,348.8269 120.2903,352.2269 117.8503,354.6859 C113.4303,359.1469 106.7603,358.4069 101.9803,354.9259 C98.4103,352.3169 96.0603,348.4069 92.5603,345.7659 C85.9803,340.7869 75.6003,341.0669 68.7513,345.3769 C68.3303,345.6469 67.9213,345.1369 68.1103,344.7369 C72.3165879,336.129324 80.652823,331.178372 90.2943881,331.211644 L90.2943881,331.211644 Z" fill="#000"/></g><g transform="translate(159 186)"><g stroke="none" fill="none" stroke-width="1" fill-rule="evenodd"><path d="M146.586567,240.926554 C139.864291,238.184203 133.866322,233.609781 129.481228,227.766254 C127.956691,225.734803 127.561405,223.589624 127.881219,221.627583 C128.240828,219.421406 129.546036,217.4219 131.326046,216.080693 C133.111571,214.735331 135.345035,214.071832 137.504329,214.410065 C139.380629,214.703969 141.248396,215.731287 142.726594,217.861908 L143.035427,218.287981 C145.642441,221.814933 149.039621,224.708755 152.91047,226.573991 C156.641339,228.371775 160.813939,229.21087 165.131898,228.722919 C173.355732,227.793938 179.024012,223.346401 185.048774,217.30672 C185.795561,216.544195 186.542826,215.757766 187.293714,214.958678 C187.767915,214.234308 188.425986,213.768756 189.156624,213.524488 C189.967867,213.253272 190.885573,213.268617 191.726122,213.56195 C192.536835,213.844871 193.261572,214.380994 193.747527,215.094538 C194.209389,215.772704 194.47125,216.610486 194.386283,217.574143 C193.834826,223.833283 190.562474,229.419299 185.914235,233.805502 C180.751772,238.67694 173.908551,242.047034 167.465957,243.229031 C160.36811,244.531047 153.135593,243.598228 146.586567,240.926554 L146.586567,240.926554 Z M170.814304,144.367155 C178.365682,148.9572 189.871664,159.660291 181.748119,171.039573 C172.185929,181.073062 158.418535,169.568982 151.634201,164.366134 C145.343449,160.333898 138.275437,170.704507 144.112,175.412823 C193.135736,211.708059 213.030606,145.567387 174.633685,138.970386 C170.406047,138.243425 168.835891,142.947174 170.814304,144.367155 Z M82.9633,102.1464 C83.7976284,91.7901242 99.5703,89.4384 101.1393,99.6864 C102.5443,108.8664 100.8903,117.2994 96.7553,125.5644 C92.8043,133.4604 82.8737826,129.776544 82.1227826,122.586544 C81.1160984,112.948648 82.4443,108.588596 82.9633,102.1464 Z M203.027,97.5615 C205.226,94.6815 208.401,92.7155 212.205,93.8265 C224.09,97.2995 220.587,114.1725 216.413,122.3855 C214.145,126.8455 206.814,127.9765 203.501,124.0495 C198.101,117.6455 195.515,104.8565 202.38,98.5485 C202.566,98.2225 202.773,97.8935 203.027,97.5615 Z M96.5879,56.8305 L98.465271,56.501905 C104.27307,55.49746 111.4944,54.5323 115.6029,59.2015 C117.7819,61.6775 118.5319,66.2795 115.6029,68.6495 C110.4509,72.8195 104.7549,71.2035 98.5809,71.5565 C93.4929,71.8485 88.6029,72.6905 83.7019,74.0915 C72.9499,77.1645 64.1889,82.7745 55.0059,88.9345 C53.8009,89.7425 52.5709,88.2015 53.1459,87.0745 C58.4469,76.6915 68.7199,68.1625 79.0099,62.9635 C84.5019,60.1885 90.5119,57.8865 96.5879,56.8305 Z M192.192876,52.1793876 L193.629806,52.4734684 C209.267042,55.742077 229.583473,62.2713911 236.988459,77.6308459 C237.270623,79.8027272 236.97249,80.2682047 236.730054,80.5723213 L236.649336,80.6735209 C236.449568,80.9332186 236.290169,81.2912104 235.348782,81.5868073 C235.087547,81.5245653 234.823712,81.4586426 234.557082,81.3887687 C231.162766,80.499243 228.477205,79.2737961 225.877298,78.0022488 L223.058339,76.6134493 C219.787784,75.0098309 216.488352,73.4645766 212.991711,72.3238115 C205.52958,69.8898666 197.854137,68.1753043 190.059777,67.259767 C188.37041,67.0615005 186.743655,66.4913394 185.460262,65.5141761 C184.242065,64.5866523 183.311441,63.3024737 182.887128,61.5955207 C182.33722,59.3864508 182.495251,57.7140037 183.680513,55.7210991 C184.571756,54.2244705 185.846982,53.1871113 187.311265,52.5914244 C188.804038,51.9841473 190.503545,51.840982 192.192876,52.1793876 Z" fill="#000"/></g></g><g transform="translate(120 332)"><g stroke="none" fill="none" stroke-width="1" fill-opacity="0" fill-rule="evenodd"/></g><g transform="translate(47 241)"><g stroke="none" fill="none" stroke-width="1" fill-rule="evenodd" fill-opacity="0"/></g></g></g></g></g></svg>